<?xml version="1.0" encoding="UTF-8"?><svg id="uuid-5f521474-5170-4d87-9be2-94ae096768fd" xmlns="http://www.w3.org/2000/svg" viewBox="0 0 451.5 136.6"><defs><style>.uuid-08c3c9b1-1498-4e86-97dc-6b0c40cef4c7{fill:#2d312e;}</style></defs><path class="uuid-08c3c9b1-1498-4e86-97dc-6b0c40cef4c7" d="m171,46.9V0c7.8,2.7,15.2,5.1,22.5,7.8,1,.4,2.1,2.1,2.1,3.2-.1,28.1.6,56.3-.9,84.4-1.3,23.1-21.3,39.8-45.4,40.8-22.5.9-42.9-15.1-47.4-37-7.4-36.8,26.2-66.4,62.2-54.6,2,.7,4,1.4,6.8,2.4Zm-45.3,42c0,12.4,9.9,22.5,22.4,22.7,11.9.2,22.8-10.5,22.8-22.5,0-12.2-10.3-22.8-22.3-23-12.5-.2-22.9,10.1-22.8,22.7Z"/><path class="uuid-08c3c9b1-1498-4e86-97dc-6b0c40cef4c7" d="m93.3,135.2c-8.6-1.4-17.4,2.1-26.4-2.7-25.2,10-44.8.5-56.6-13.9-12.8-15.6-13.7-38.2-2.8-55.1,6.5-10,15.4-16.9,27.1-19.9,11.5-3,22.7-2,33.9,3.2.3-1.9.5-3.3.7-4.8h24v93.3ZM24.8,88.8c0,12.6,10,23.1,22,23.1,12.7,0,23.1-10.1,23.1-22.6,0-13.2-9.8-22.7-23.3-22.6-11.7,0-21.9,10.3-21.9,22.1Z"/><path class="uuid-08c3c9b1-1498-4e86-97dc-6b0c40cef4c7" d="m426.8,46.3c.2-1.6.3-2.9.5-4.3h24.2v92.4c-10.3,2.2-23.6,1-25.4-2.3-26.4,10.5-45.8,1-57.6-13.5-13.1-16.1-13.7-39-2.3-55.9,12.9-19.1,31.1-24.1,60.6-16.4Zm1.3,42.7c0-12.9-9.7-22.3-23-22.3-11.8,0-22.2,10.4-22.1,22.4,0,12.6,10.5,23,22.9,22.8,12.3-.2,22.3-10.5,22.2-22.9Z"/><path class="uuid-08c3c9b1-1498-4e86-97dc-6b0c40cef4c7" d="m250.6,136.2c-26.4-.1-47.4-21.2-47.1-47.4.2-26.4,21.1-47.1,47.5-47,26.8.1,47.2,21,47,47.9-.2,26.1-21.1,46.6-47.4,46.5Zm22.7-46.8c0-12.7-10.2-23.2-22.5-23.1-11.9,0-22.6,10.4-22.7,22.1-.1,12.5,10.1,23.2,22.4,23.4,12.1.2,22.8-10.3,22.8-22.3Z"/><path class="uuid-08c3c9b1-1498-4e86-97dc-6b0c40cef4c7" d="m307.3,134.7c0-12-.2-23.8,0-35.6.1-6,.4-12.1,1.7-17.8,5.3-23.4,27.1-40.5,51.6-40.6v24c-1,.2-2.2.6-3.5.8-15.3,2.6-25.2,14.4-25.2,30,0,13,0,25.9,0,39.2h-24.7Z"/></svg>